<svg xmlns="http://www.w3.org/2000/svg" viewBox="0 0 100 100" width="400" height="400"><path d="M30,6H70Q78,6 78,14V86Q78,94 70,94H30Q22,94 22,86V14Q22,6 30,6Z" fill="currentColor" fill-opacity=".10" stroke="currentColor" stroke-width="4" stroke-linejoin="round" stroke-linecap="round" fill-rule="evenodd" pathLength="1"/><path d="M34,86V40Q34,24 50,16Q66,24 66,40V86Z" fill="none" stroke="currentColor" stroke-width="4" stroke-linejoin="round" stroke-linecap="round" fill-rule="evenodd" pathLength="1"/><path d="M50,42 L51.34,46.77 L55.66,44.34 L53.23,48.66 L58,50 L53.23,51.34 L55.66,55.66 L51.34,53.23 L50,58 L48.66,53.23 L44.34,55.66 L46.77,51.34 L42,50 L46.77,48.66 L44.34,44.34 L48.66,46.77Z" fill="currentColor" fill-opacity=".25" stroke="currentColor" stroke-width="4" stroke-linejoin="round" stroke-linecap="round" fill-rule="evenodd" pathLength="1"/><path d="M22,14H78M22,86H78" fill="none" stroke="currentColor" stroke-width="4" stroke-linejoin="round" stroke-linecap="round" fill-rule="evenodd" pathLength="1"/></svg>