<svg xmlns="http://www.w3.org/2000/svg" viewBox="0 0 1080 1920" width="1080" height="1920"><defs><linearGradient id="s" x1="0" y1="0" x2="1" y2="1"><stop offset="0" stop-color="#0B3B2E"/><stop offset="1" stop-color="#0F4C3A"/></linearGradient></defs><rect width="1080" height="1920" fill="url(#s)"/><circle cx="145.11" cy="1627.07" r="60.29" fill="#E6C877" fill-opacity="0.11"/><circle cx="535.07" cy="863.02" r="53.02" fill="#E6C877" fill-opacity="0.23"/><circle cx="101.37" cy="54.43" r="64.96" fill="#E6C877" fill-opacity="0.15"/><circle cx="823.26" cy="4.04" r="39.66" fill="#E6C877" fill-opacity="0.22"/><circle cx="247.06" cy="1814.92" r="69.21" fill="#E6C877" fill-opacity="0.06"/><circle cx="27.48" cy="1039.51" r="71.66" fill="#E6C877" fill-opacity="0.14"/><circle cx="233.93" cy="810.46" r="12.68" fill="#E6C877" fill-opacity="0.1"/><circle cx="472.92" cy="951.96" r="25.9" fill="#E6C877" fill-opacity="0.1"/><circle cx="236.28" cy="882.44" r="29.58" fill="#E6C877" fill-opacity="0.05"/><circle cx="904.58" cy="1068.39" r="52.42" fill="#E6C877" fill-opacity="0.09"/><circle cx="1071.95" cy="1651.1" r="18.63" fill="#E6C877" fill-opacity="0.13"/><circle cx="779.2" cy="1365.49" r="71.48" fill="#E6C877" fill-opacity="0.15"/><circle cx="896.44" cy="1286.99" r="30.46" fill="#E6C877" fill-opacity="0.19"/><circle cx="953.08" cy="1624.7" r="43.54" fill="#E6C877" fill-opacity="0.19"/><circle cx="37.29" cy="466.06" r="62.47" fill="#E6C877" fill-opacity="0.15"/><circle cx="186.85" cy="1053.69" r="56.36" fill="#E6C877" fill-opacity="0.21"/><circle cx="404.68" cy="842.81" r="43.75" fill="#E6C877" fill-opacity="0.23"/><circle cx="562.61" cy="755.05" r="42.53" fill="#E6C877" fill-opacity="0.06"/><circle cx="46.97" cy="1350.49" r="74.51" fill="#E6C877" fill-opacity="0.19"/><circle cx="425.09" cy="327.07" r="43.35" fill="#E6C877" fill-opacity="0.28"/><circle cx="832.16" cy="1036.07" r="66.55" fill="#E6C877" fill-opacity="0.1"/><circle cx="554.87" cy="1828.74" r="48.24" fill="#E6C877" fill-opacity="0.16"/><circle cx="290.82" cy="1052.15" r="72.82" fill="#E6C877" fill-opacity="0.05"/><circle cx="846.35" cy="1575.33" r="68.22" fill="#E6C877" fill-opacity="0.22"/><circle cx="873.87" cy="995.86" r="47.18" fill="#E6C877" fill-opacity="0.15"/><circle cx="60.61" cy="1670.42" r="47.74" fill="#E6C877" fill-opacity="0.1"/><circle cx="545.1" cy="931.06" r="33.92" fill="#E6C877" fill-opacity="0.13"/><circle cx="581.56" cy="1197.1" r="50.49" fill="#E6C877" fill-opacity="0.16"/><circle cx="30.21" cy="440.84" r="22.28" fill="#E6C877" fill-opacity="0.18"/><circle cx="929.89" cy="1533" r="62.45" fill="#E6C877" fill-opacity="0.24"/><circle cx="275.72" cy="1616.15" r="54.42" fill="#E6C877" fill-opacity="0.07"/><circle cx="18.03" cy="27.96" r="59.76" fill="#E6C877" fill-opacity="0.11"/><circle cx="118.25" cy="1199.62" r="33.12" fill="#E6C877" fill-opacity="0.07"/><circle cx="172.4" cy="1012.57" r="21.7" fill="#E6C877" fill-opacity="0.11"/><circle cx="768.52" cy="873.03" r="31.67" fill="#E6C877" fill-opacity="0.16"/><circle cx="25.53" cy="742.19" r="38.08" fill="#E6C877" fill-opacity="0.09"/><circle cx="117.46" cy="1727.65" r="43.86" fill="#E6C877" fill-opacity="0.1"/><circle cx="654.1" cy="1568.72" r="12.15" fill="#E6C877" fill-opacity="0.05"/></svg>