<svg xmlns="http://www.w3.org/2000/svg" viewBox="0 0 100 100" width="400" height="400"><path d="M92.4,50a1.6,1.6 0 1,0 3.2,0a1.6,1.6 0 1,0 -3.2,0ZM91.73,57.64a1.6,1.6 0 1,0 3.2,0a1.6,1.6 0 1,0 -3.2,0ZM89.75,65.05a1.6,1.6 0 1,0 3.2,0a1.6,1.6 0 1,0 -3.2,0ZM86.51,72a1.6,1.6 0 1,0 3.2,0a1.6,1.6 0 1,0 -3.2,0ZM82.11,78.28a1.6,1.6 0 1,0 3.2,0a1.6,1.6 0 1,0 -3.2,0ZM76.68,83.71a1.6,1.6 0 1,0 3.2,0a1.6,1.6 0 1,0 -3.2,0ZM70.4,88.11a1.6,1.6 0 1,0 3.2,0a1.6,1.6 0 1,0 -3.2,0ZM63.45,91.35a1.6,1.6 0 1,0 3.2,0a1.6,1.6 0 1,0 -3.2,0ZM56.04,93.33a1.6,1.6 0 1,0 3.2,0a1.6,1.6 0 1,0 -3.2,0ZM48.4,94a1.6,1.6 0 1,0 3.2,0a1.6,1.6 0 1,0 -3.2,0ZM40.76,93.33a1.6,1.6 0 1,0 3.2,0a1.6,1.6 0 1,0 -3.2,0ZM33.35,91.35a1.6,1.6 0 1,0 3.2,0a1.6,1.6 0 1,0 -3.2,0ZM26.4,88.11a1.6,1.6 0 1,0 3.2,0a1.6,1.6 0 1,0 -3.2,0ZM20.12,83.71a1.6,1.6 0 1,0 3.2,0a1.6,1.6 0 1,0 -3.2,0ZM14.69,78.28a1.6,1.6 0 1,0 3.2,0a1.6,1.6 0 1,0 -3.2,0ZM10.29,72a1.6,1.6 0 1,0 3.2,0a1.6,1.6 0 1,0 -3.2,0ZM7.05,65.05a1.6,1.6 0 1,0 3.2,0a1.6,1.6 0 1,0 -3.2,0ZM5.07,57.64a1.6,1.6 0 1,0 3.2,0a1.6,1.6 0 1,0 -3.2,0ZM4.4,50a1.6,1.6 0 1,0 3.2,0a1.6,1.6 0 1,0 -3.2,0ZM5.07,42.36a1.6,1.6 0 1,0 3.2,0a1.6,1.6 0 1,0 -3.2,0ZM7.05,34.95a1.6,1.6 0 1,0 3.2,0a1.6,1.6 0 1,0 -3.2,0ZM10.29,28a1.6,1.6 0 1,0 3.2,0a1.6,1.6 0 1,0 -3.2,0ZM14.69,21.72a1.6,1.6 0 1,0 3.2,0a1.6,1.6 0 1,0 -3.2,0ZM20.12,16.29a1.6,1.6 0 1,0 3.2,0a1.6,1.6 0 1,0 -3.2,0ZM26.4,11.89a1.6,1.6 0 1,0 3.2,0a1.6,1.6 0 1,0 -3.2,0ZM33.35,8.65a1.6,1.6 0 1,0 3.2,0a1.6,1.6 0 1,0 -3.2,0ZM40.76,6.67a1.6,1.6 0 1,0 3.2,0a1.6,1.6 0 1,0 -3.2,0ZM48.4,6a1.6,1.6 0 1,0 3.2,0a1.6,1.6 0 1,0 -3.2,0ZM56.04,6.67a1.6,1.6 0 1,0 3.2,0a1.6,1.6 0 1,0 -3.2,0ZM63.45,8.65a1.6,1.6 0 1,0 3.2,0a1.6,1.6 0 1,0 -3.2,0ZM70.4,11.89a1.6,1.6 0 1,0 3.2,0a1.6,1.6 0 1,0 -3.2,0ZM76.68,16.29a1.6,1.6 0 1,0 3.2,0a1.6,1.6 0 1,0 -3.2,0ZM82.11,21.72a1.6,1.6 0 1,0 3.2,0a1.6,1.6 0 1,0 -3.2,0ZM86.51,28a1.6,1.6 0 1,0 3.2,0a1.6,1.6 0 1,0 -3.2,0ZM89.75,34.95a1.6,1.6 0 1,0 3.2,0a1.6,1.6 0 1,0 -3.2,0ZM91.73,42.36a1.6,1.6 0 1,0 3.2,0a1.6,1.6 0 1,0 -3.2,0Z" fill="#C9A24B" fill-opacity=".25" stroke="#C9A24B" stroke-width="3.5" stroke-linejoin="round" stroke-linecap="round" fill-rule="evenodd" pathLength="1"/><path d="M14,50a36,36 0 1,0 72,0a36,36 0 1,0 -72,0Z" fill="none" stroke="#C9A24B" stroke-width="3.5" stroke-linejoin="round" stroke-linecap="round" fill-rule="evenodd" pathLength="1"/></svg>